<svg xmlns="http://www.w3.org/2000/svg" xmlns:xlink="http://www.w3.org/1999/xlink" x="0px" y="0px" viewBox="0 0 140 58.1" style="enable-background:new 0 0 140 58.1;" xml:space="preserve"><style type="text/css">	.st0{fill:#FFFFFF;}</style><g id="Guias"></g><g id="Marcas_de_corte">	<g>		<g>			<polygon class="st0" points="29.1,15.8 31,15.8 30.1,13.5    "></polygon>			<path class="st0" d="M118.2,13.1h-1.6v2.1h1.6c0.8,0,1.2-0.4,1.2-1v0C119.5,13.5,119,13.1,118.2,13.1z"></path>			<path class="st0" d="M47.2,15.9h-1.8v1.6h1.9c0.7,0,1.1-0.2,1.1-0.8v0C48.3,16.2,48,15.9,47.2,15.9z"></path>			<path class="st0" d="M47.9,13.8L47.9,13.8c0-0.5-0.4-0.8-1-0.8h-1.6v1.5h1.4C47.5,14.6,47.9,14.4,47.9,13.8z"></path>			<path class="st0" d="M134.1,4.9H6C5,4.9,4.1,5.8,4.1,6.9v17.1C4.1,25,5,25.8,6,25.8h128.1c1.1,0,1.9-0.9,1.9-1.9V6.9     C136,5.8,135.2,4.9,134.1,4.9z M21.1,14.4h-1.8v0.9h1.8v1.2h-1.8v0.9h1.8v1.2h-1.8v0.9h1.8V20c0,0.7-0.6,1.3-1.3,1.3h-8.1     c-0.7,0-1.3-0.6-1.3-1.3v-6.4c0-0.7,0.6-1.3,1.3-1.3h0.6v-0.8c0-1.5,1.2-2.8,2.8-2.8h1.4c1.5,0,2.8,1.2,2.8,2.8v0.8h0.6     c0.7,0,1.3,0.6,1.3,1.3V14.4z M32.2,18.8l-0.7-1.6h-3l-0.7,1.6h-1.6l3.1-7.2h1.4l3.1,7.2H32.2z M42.1,18.8h-1.6v-4.7l-2,3h0l-2-3     v4.6H35v-7.1h1.7l1.9,3l1.9-3h1.7V18.8z M49.9,16.9c0,1.3-1.1,2-2.7,2h-3.4v-7.1h3.3c0.8,0,1.5,0.2,1.9,0.6     c0.3,0.3,0.5,0.7,0.5,1.2v0c0,0.8-0.4,1.3-0.9,1.5C49.4,15.4,49.9,15.9,49.9,16.9L49.9,16.9z M52.8,18.8h-1.6v-7.1h1.6V18.8z      M60.1,18.8h-5.4v-7.1H60v1.4h-3.8v1.4h3.4v1.4h-3.4v1.5h3.9V18.8z M67.8,18.8h-1.3L63,14.3v4.5h-1.6v-7.1h1.4l3.3,4.4v-4.4h1.6     V18.8z M74.9,13.1h-2.2v5.7h-1.6v-5.7H69v-1.4h5.9V13.1z M81.6,18.8h-5.4v-7.1h5.4v1.4h-3.8v1.4h3.4v1.4h-3.4v1.5h3.9V18.8z      M91.2,16.7c0,1.4-1.1,2.2-2.6,2.2c-1.1,0-2.2-0.4-3-1.1l0.9-1.1c0.6,0.5,1.3,0.9,2.1,0.9c0.6,0,1-0.3,1-0.7v0     c0-0.4-0.2-0.6-1.4-0.9c-1.4-0.4-2.4-0.8-2.4-2.2v0c0-1.3,1-2.2,2.5-2.2c1,0,1.9,0.3,2.7,0.9l-0.8,1.2c-0.6-0.4-1.3-0.7-1.9-0.7     c-0.6,0-0.9,0.3-0.9,0.6v0c0,0.5,0.3,0.6,1.5,0.9C90.4,14.9,91.2,15.5,91.2,16.7L91.2,16.7z M98,18.8h-5.4v-7.1h5.4v1.4h-3.8v1.4     h3.4v1.4h-3.4v1.5H98V18.8z M105.9,17.8c-0.7,0.6-1.7,1.1-3,1.1c-2.2,0-3.8-1.6-3.8-3.7v0c0-2,1.6-3.7,3.7-3.7     c1.3,0,2.1,0.3,2.8,1l-1,1.2c-0.6-0.5-1-0.7-1.9-0.7c-1.1,0-2,1-2,2.2v0c0,1.3,0.9,2.3,2.2,2.3c0.6,0,1.1-0.1,1.5-0.4v-1h-1.6     v-1.4h3.1V17.8z M113.5,15.7c0,2.2-1.2,3.2-3.1,3.2c-1.9,0-3.1-1.1-3.1-3.2v-4.1h1.6v4c0,1.2,0.6,1.8,1.5,1.8     c1,0,1.5-0.6,1.5-1.7v-4.1h1.6V15.7z M119.4,18.8l-1.5-2.3h0h-1.2v2.3h-1.6v-7.1h3.3c0.9,0,1.6,0.3,2.1,0.7     c0.4,0.4,0.6,1,0.6,1.6v0c0,1.2-0.6,1.9-1.5,2.2l1.7,2.5H119.4z M129.8,15.3c0,2-1.6,3.7-3.8,3.7c-2.2,0-3.8-1.6-3.8-3.7v0     c0-2,1.6-3.7,3.8-3.7C128.2,11.6,129.8,13.2,129.8,15.3L129.8,15.3z"></path>			<path class="st0" d="M16.4,9.9H15c-0.9,0-1.7,0.7-1.7,1.7v0.8h4.7v-0.8C18.1,10.7,17.4,9.9,16.4,9.9z"></path>			<path class="st0" d="M15.7,15.1c-0.5,0-1,0.4-1,1c0,0.3,0.2,0.6,0.4,0.8v1.6c0,0.3,0.2,0.5,0.5,0.5c0.3,0,0.5-0.2,0.5-0.5v-1.6     c0.3-0.2,0.4-0.5,0.4-0.8C16.7,15.5,16.3,15.1,15.7,15.1z"></path>			<path class="st0" d="M126,13c-1.3,0-2.1,1-2.1,2.2v0c0,1.2,0.9,2.2,2.2,2.2c1.3,0,2.1-1,2.1-2.2v0C128.1,14,127.2,13,126,13z"></path>		</g>		<g>			<path class="st0" d="M69.6,39.3h-1.6v2.2h1.7c0.8,0,1.3-0.4,1.3-1.1v0C70.9,39.7,70.4,39.3,69.6,39.3z"></path>			<polygon class="st0" points="105.6,42.2 107.6,42.2 106.6,39.8    "></polygon>			<polygon class="st0" points="16,41.4 15.1,40.5 13.9,41.6 16,43.7 19.7,40 18.5,38.8    "></polygon>			<path class="st0" d="M114.7,39.3h-1.3v4.5h1.3c1.4,0,2.3-0.9,2.3-2.2v0C116.9,40.3,116,39.3,114.7,39.3z"></path>			<path class="st0" d="M134.6,30.9H5.1c-0.5,0-1,0.4-1,1v19.3c0,0.5,0.4,1,1,1h129.5c0.5,0,1-0.4,1-1V31.8     C135.6,31.3,135.1,30.9,134.6,30.9z M21.6,39.4c0,0.5,0,1,0,1.5c0,1.7-0.6,3.3-1.6,4.7c-0.9,1.1-2.1,2-3.5,2.4     C16.3,48,16.2,48,16,48c-1.4-0.4-2.7-1.3-3.6-2.6c-1-1.3-1.5-2.8-1.5-4.4c0-1.2,0-2.3,0-3.5c0-0.1,0-0.2,0.1-0.2     c1.7-0.7,3.4-1.5,5.1-2.3c0.1,0,0.2,0,0.2,0c1.7,0.8,3.4,1.5,5.1,2.2c0.1,0,0.1,0.1,0.1,0.2C21.6,38.2,21.6,38.8,21.6,39.4z      M33,43.1c0,1.5-1.1,2.3-2.8,2.3c-1.1,0-2.3-0.4-3.2-1.2l1-1.2c0.7,0.6,1.4,0.9,2.2,0.9c0.7,0,1.1-0.3,1.1-0.7v0     c0-0.4-0.3-0.6-1.5-1c-1.5-0.4-2.5-0.8-2.5-2.3v0c0-1.4,1.1-2.3,2.6-2.3c1.1,0,2,0.3,2.8,1l-0.9,1.2c-0.7-0.5-1.3-0.7-2-0.7     c-0.6,0-1,0.3-1,0.7v0c0,0.5,0.3,0.7,1.6,1C32.1,41.2,33,41.8,33,43.1L33,43.1z M39.8,43.1c0,1.5-1.1,2.3-2.8,2.3     c-1.1,0-2.3-0.4-3.2-1.2l1-1.2c0.7,0.6,1.4,0.9,2.2,0.9c0.7,0,1.1-0.3,1.1-0.7v0c0-0.4-0.3-0.6-1.5-1c-1.5-0.4-2.5-0.8-2.5-2.3v0     c0-1.4,1.1-2.3,2.6-2.3c1.1,0,2,0.3,2.8,1l-0.9,1.2c-0.7-0.5-1.3-0.7-2-0.7c-0.6,0-1,0.3-1,0.7v0c0,0.5,0.3,0.7,1.6,1     C38.9,41.2,39.8,41.8,39.8,43.1L39.8,43.1z M46.6,45.4h-5.4v-7.5h1.7v6h3.8V45.4z M54.6,45.5c-2.2,0-3.9-1.7-3.9-3.9v0     c0-2.1,1.6-3.9,3.9-3.9c1.4,0,2.3,0.5,3,1.2l-1.1,1.2c-0.6-0.5-1.2-0.9-1.9-0.9c-1.3,0-2.2,1.1-2.2,2.3v0c0,1.3,0.9,2.4,2.2,2.4     c0.9,0,1.4-0.3,2-0.9l1.1,1.1C56.9,45,56.1,45.5,54.6,45.5z M64.8,45.4H59v-7.5h5.7v1.5h-4v1.5h3.6v1.5h-3.6v1.6h4.1V45.4z      M70.8,45.4l-1.6-2.4h0h-1.3v2.4h-1.7v-7.5h3.4c1,0,1.7,0.3,2.2,0.8c0.4,0.4,0.6,1,0.6,1.7v0c0,1.2-0.7,2-1.6,2.3l1.8,2.7H70.8z      M79.7,39.4h-2.3v6h-1.7v-6h-2.3v-1.5h6.2V39.4z M82.7,45.4h-1.7v-7.5h1.7V45.4z M90.4,39.3h-4.1v1.6h3.6v1.5h-3.6v2.9h-1.7v-7.5     h5.7V39.3z M93.4,45.4h-1.7v-7.5h1.7V45.4z M98.8,45.5c-2.2,0-3.9-1.7-3.9-3.9v0c0-2.1,1.6-3.9,3.9-3.9c1.4,0,2.3,0.5,3,1.2     l-1.1,1.2c-0.6-0.5-1.2-0.9-1.9-0.9c-1.3,0-2.2,1.1-2.2,2.3v0c0,1.3,0.9,2.4,2.2,2.4c0.9,0,1.4-0.3,2-0.9l1.1,1.1     C101.1,45,100.3,45.5,98.8,45.5z M108.8,45.4l-0.7-1.7H105l-0.7,1.7h-1.7l3.2-7.6h1.5l3.2,7.6H108.8z M118.7,41.6     c0,2.1-1.6,3.8-4,3.8h-2.9v-7.5h2.9C117,37.8,118.7,39.4,118.7,41.6L118.7,41.6z M127.8,41.6c0,2.1-1.7,3.9-4,3.9     c-2.3,0-4-1.7-4-3.9v0c0-2.1,1.7-3.9,4-3.9S127.8,39.4,127.8,41.6L127.8,41.6z"></path>			<path class="st0" d="M123.8,39.2c-1.3,0-2.3,1.1-2.3,2.3v0c0,1.3,0.9,2.4,2.3,2.4s2.3-1.1,2.3-2.3v0     C126.1,40.3,125.1,39.2,123.8,39.2z"></path>		</g>	</g></g></svg>