<svg xmlns="http://www.w3.org/2000/svg" xmlns:xlink="http://www.w3.org/1999/xlink" id="Camada_1" x="0px" y="0px" viewBox="0 0 206.6 178" style="enable-background:new 0 0 206.6 178;" xml:space="preserve"><style type="text/css">	.st0{fill:#FFFFFF;}</style><g>	<path class="st0" d="M69.3,128.5l-1.2,1.3l1,0.8l-0.2,0.2c-0.4,0.5-0.9,0.5-1.5,0c-0.6-0.5-0.5-1.1-0.1-1.7l1.7-1.9   c0.5-0.5,1.1-0.5,1.6,0c0.4,0.4,0.6,1,0.2,1.5l-0.1,0.2l1.9,1.7l0.2-0.3c1.4-1.6,0.3-3.5-1-4.6c-1.5-1.3-3.5-1.7-5-0.1l-1.6,1.9   c-1.6,1.8-0.7,3.7,0.8,5c1.3,1.1,3.4,1.9,4.7,0.3l1.4-1.6L69.3,128.5z"></path>	<path class="st0" d="M71.1,136.2l2.2,1.3l1-1l2.5,1.4l-0.3,1.4l2.4,1.4l1.9-8.9l-2.7-1.6L71.1,136.2z M77.3,135.9l-1.5-0.8l2.1-2   l0,0L77.3,135.9z"></path>	<path class="st0" d="M88.2,135l-3.9-1.3l-2.8,8.2l2.6,0.9L85,140l0.5,0.2l0.4,3.2l2.8,1l-0.6-3.7c1.2-0.1,2-0.9,2.3-1.9   C90.9,137.3,90.4,135.7,88.2,135z M87.8,138c-0.2,0.5-0.6,0.8-1.2,0.6l-1-0.3l0.6-1.8l1,0.4C87.9,137,88,137.5,87.8,138z"></path>	<path class="st0" d="M95.3,136.7l-4.1,8.2l2.5,0.3l0.6-1.3l2.8,0.4l0.2,1.4l2.7,0.4l-1.7-9L95.3,136.7z M95.2,142l1.2-2.7l0,0   l0.4,2.9L95.2,142z"></path>	<polygon class="st0" points="108,137.2 108.2,141.1 108.2,141.1 105.1,137.4 102.5,137.6 103,146.2 105.5,146 105.2,141.8    105.2,141.8 108.5,145.8 110.9,145.7 110.4,137.1  "></polygon>	<polygon class="st0" points="119.2,135 111.8,136.8 112.3,138.9 114.7,138.3 116.3,144.6 118.9,143.9 117.3,137.6 119.7,137  "></polygon>	<rect x="122.1" y="133.5" transform="matrix(0.925 -0.38 0.38 0.925 -43.0939 57.2719)" class="st0" width="2.7" height="8.6"></rect>	<path class="st0" d="M132.9,131.3c-1.1-1.8-2.9-1.7-4.6-0.7l-3.3,2l4.4,7.4l3.3-2c1.7-1,2.7-2.6,1.5-4.5L132.9,131.3z M131.4,136.3   l-0.8,0.5l-2.2-3.8l0.8-0.5c0.6-0.4,1.2-0.2,1.5,0.3l1.1,1.9C132,135.3,132,135.9,131.4,136.3z"></path>	<path class="st0" d="M140.4,125.3c-1.7-1.9-3.7-1.3-5.2,0c-1.5,1.3-2.2,3.3-0.7,5.1l1.5,1.7c1.7,1.9,3.6,1.3,5.1,0   c1.4-1.3,2.3-3.2,0.7-5.1L140.4,125.3z M139.8,130.4c-0.6,0.5-1.1,0.4-1.7-0.2l-1.5-1.7c-0.5-0.6-0.5-1.1,0.1-1.6   c0.5-0.4,1.1-0.5,1.6,0.1l1.6,1.8C140.3,129.3,140.3,130,139.8,130.4z"></path>	<polygon class="st0" points="52.5,90.9 52.5,92.3 54.3,92.3 54.2,87 52.4,87 52.4,88.4 45.5,88.5 45.5,89.8 46.1,92.4 47.9,92.4    47.8,90.9  "></polygon>	<path class="st0" d="M48.3,85.1l3.3,0.4c2.1,0.3,3-1.5,3.2-3.1c0.2-1.5-0.3-3.5-2.3-3.8l-3.2-0.4c-2.1-0.3-3.1,1.5-3.3,3.1   C45.8,82.9,46.2,84.8,48.3,85.1z M48.8,80.8l3.4,0.5c0.3,0,0.7,0.3,0.6,0.9c-0.1,0.5-0.4,0.8-0.8,0.7l-3.4-0.5   c-0.3,0-0.6-0.4-0.5-0.9C48.1,81,48.4,80.7,48.8,80.8z"></path>	<path class="st0" d="M54.9,70.4l-3.1-1c-2-0.6-3.3,1-3.8,2.5c-0.5,1.6-0.3,3.5,1.7,4.1l3.2,1c2,0.6,3.2-1,3.7-2.6   C57,73.1,56.8,71,54.9,70.4z M54.5,74c-0.2,0.5-0.6,0.7-0.9,0.6l-3.3-1c-0.3-0.1-0.5-0.5-0.4-0.9c0.1-0.5,0.5-0.7,0.8-0.6l3.2,1   C54.4,73.1,54.7,73.4,54.5,74z"></path>	<polygon class="st0" points="59.3,67.3 54,58.6 53.4,59.8 58.7,68.5  "></polygon>	<path class="st0" d="M57.7,63l1.7,0.9c1.1,0.6,1.9-0.2,2.4-1c0.4-0.8,0.6-2-0.4-2.5l-1.6-0.9c-1.1-0.6-2,0.2-2.4,1   C56.8,61.3,56.7,62.4,57.7,63z M58.4,61c0.1-0.2,0.3-0.3,0.5-0.2l1.7,0.9c0.2,0.1,0.3,0.3,0.1,0.6s-0.4,0.3-0.5,0.2l-1.7-0.9   C58.3,61.5,58.2,61.3,58.4,61z"></path>	<path class="st0" d="M51.4,66.7l1.7,0.9c1.1,0.6,1.9-0.2,2.4-1c0.4-0.8,0.6-2-0.4-2.5l-1.6-0.9c-1.1-0.6-2,0.2-2.4,1   C50.5,65,50.3,66.2,51.4,66.7z M52,64.8c0.1-0.2,0.3-0.3,0.5-0.2l1.7,0.9c0.2,0.1,0.3,0.3,0.1,0.6c-0.1,0.3-0.4,0.3-0.5,0.2   l-1.7-0.9C51.9,65.2,51.9,65,52,64.8z"></path>	<path class="st0" d="M68.2,54.6c1.3-1.4,1.9-3.2,0.3-4.8l-1.8-1.8c-1.5-1.5-3.3-0.8-4.6,0.6l-2.7,2.8l6.2,6L68.2,54.6z M63.3,50.3   c0.5-0.5,1.1-0.5,1.6-0.1l1.6,1.6c0.4,0.4,0.5,1,0,1.5L65.9,54l-3.2-3.1L63.3,50.3z"></path>	<rect x="68.8" y="42.7" transform="matrix(0.7827 -0.6224 0.6224 0.7827 -14.0306 53.897)" class="st0" width="2.7" height="8.6"></rect>	<polygon class="st0" points="77.2,47.3 75.1,43.7 75.1,43.7 79.8,45.8 81.9,44.5 77.5,37.1 75.4,38.4 77.4,41.7 77.4,41.7 73,39.8    70.7,41.1 75.1,48.5  "></polygon>	<polygon class="st0" points="85.8,43 84.7,40 86.7,39.3 87.8,42.3 90.4,41.4 87.5,33.3 84.9,34.2 86,37.1 83.9,37.8 82.9,34.9    80.3,35.8 83.2,43.9  "></polygon>	<polygon class="st0" points="98.4,39.9 98.1,37.8 94.1,38.5 93.9,37.3 97,36.8 96.7,34.8 93.6,35.3 93.4,34.1 97.3,33.5 97,31.4    90.4,32.5 91.8,41  "></polygon>			<rect x="99.7" y="31.2" transform="matrix(0.9991 -4.285664e-02 4.285664e-02 0.9991 -1.4284 4.3655)" class="st0" width="2.7" height="8.6"></rect>	<path class="st0" d="M107.2,37l0.6,0l1.1,3l3,0.3l-1.5-3.4c1.1-0.4,1.7-1.4,1.8-2.4c0.1-1.4-0.7-2.8-3-3L105,31l-0.8,8.6l2.7,0.2   L107.2,37z M107.5,33.3l1.1,0.1c0.6,0.1,0.9,0.6,0.9,1c0,0.5-0.4,0.9-1,0.9l-1.1-0.1L107.5,33.3z"></path>	<path class="st0" d="M116.4,41.6c1.8,0.5,4,0.2,4.6-2.2l0.6-2.1c0.7-2.4-1-3.7-2.9-4.3c-1.9-0.5-4,0-4.6,2.2l-0.6,2.1   C112.9,39.8,114.5,41.1,116.4,41.6z M116.2,38.1l0.6-2.2c0.2-0.8,0.7-1,1.4-0.8c0.6,0.2,1,0.7,0.8,1.4l-0.6,2.3   c-0.2,0.7-0.7,1-1.4,0.8C116.2,39.4,116,38.9,116.2,38.1z"></path>	<path class="st0" d="M132.5,45.2l1.2-2.2c1-1.8,0-3.4-1.7-4.3l-3.3-1.9l-4.2,7.5l3.4,1.9C129.4,47.1,131.4,47.2,132.5,45.2z    M130,39.9l0.8,0.4c0.6,0.3,0.8,0.9,0.5,1.5l-1.1,2c-0.3,0.5-0.8,0.8-1.5,0.4l-0.8-0.5L130,39.9z"></path>	<polygon class="st0" points="137.2,52.9 138.5,51.3 135.4,48.8 136.1,47.9 138.6,49.9 139.9,48.3 137.4,46.3 138.2,45.3    141.3,47.9 142.6,46.2 137.4,42 132,48.7  "></polygon>	<polygon class="st0" points="143.5,60.3 152,57.3 150.5,55.3 145,57.6 144.9,57.5 148.7,52.9 147,50.7 141.8,58  "></polygon>	<path class="st0" d="M150.4,60.6l-2,1c-2.3,1.2-2.1,3.2-1.2,5c0.9,1.7,2.5,3,4.7,1.9l2-1c2.2-1.2,2.1-3.2,1.2-5   C154.2,60.7,152.4,59.6,150.4,60.6z M153.2,63.5c0.3,0.5,0.2,1.2-0.5,1.5l-2.1,1.1c-0.6,0.3-1.2,0.2-1.6-0.5   c-0.3-0.7-0.1-1.2,0.6-1.6l2-1C152.4,62.7,152.9,62.9,153.2,63.5z"></path>	<polygon class="st0" points="151.5,77.5 153.5,76.9 152.3,73.1 158.5,71.1 157.7,68.6 149.5,71.2  "></polygon>	<polygon class="st0" points="158.3,78.9 151.9,79.9 152.3,82.6 158.8,81.6 159.1,84 161.2,83.7 160,76.2 158,76.5  "></polygon>	<path class="st0" d="M152.7,87.1l1.4,0.4l0,2.9l-1.4,0.4l0,2.7l8.7-2.7l0.1-3.2l-8.6-3.1L152.7,87.1z M156.1,88.2l2.8,0.9l0,0   l-2.8,0.8L156.1,88.2z"></path>	<path class="st0" d="M60.6,89c0,23.7,19.2,42.9,42.9,42.9s42.9-19.2,42.9-42.9s-19.2-42.9-42.9-42.9S60.6,65.3,60.6,89z    M103.5,49.1c22,0,39.9,17.9,39.9,39.9s-17.9,39.9-39.9,39.9S63.6,111,63.6,89S81.5,49.1,103.5,49.1z"></path>	<polygon class="st0" points="94.4,98.3 102.8,98.3 116.4,70.3 116.4,64.5 92.4,64.5 92.4,71.1 107.8,71.1  "></polygon>	<path class="st0" d="M95.7,109.6v-3.3c0-2.7-2.1-3.8-4.7-3.8h-4.9v11H91C93.5,113.6,95.7,112.5,95.7,109.6z M89.6,110.9v-5.6h1.1   c0.9,0,1.5,0.5,1.5,1.4v2.9c0,0.7-0.4,1.4-1.4,1.4H89.6z"></path>	<rect x="96.5" y="102.6" class="st0" width="3.5" height="11"></rect>	<path class="st0" d="M104.7,102.6l-3.7,11h3.2l0.5-1.8h3.7l0.5,1.8h3.5l-3.6-11H104.7z M105.4,109.3l1.1-3.6h0l1.1,3.6H105.4z"></path>	<path class="st0" d="M113.1,106.2c0,1.6,1.1,2.7,2.6,3.1l1.8,0.5c0.2,0,0.1,0,0.1,0c0.5,0.1,1,0.3,1,0.8s-0.7,0.6-1.3,0.6   c-1.1,0-2.2-0.6-2.9-1.1l-1.6,2.4c1.5,1.1,3,1.2,4.9,1.2c2.1,0,4.7-1,4.7-3.8c0-1.5-0.9-2.6-2.8-3.1l-1.6-0.4   c-0.8-0.2-1.4-0.3-1.4-0.8s0.5-0.7,1.2-0.7c0.7,0,1.7,0.3,2.3,0.8l1.8-2.3c-1.3-0.7-2.2-1.1-4.3-1.1   C114.8,102.4,113.1,104.2,113.1,106.2z"></path>	<path class="st0" d="M53.7,106.6c-1.2,0-2.1,0.9-2.1,2.1s0.9,2.1,2.1,2.1s2.1-0.9,2.1-2.1S54.9,106.6,53.7,106.6z"></path>	<path class="st0" d="M152.7,106.6c-1.2,0-2.1,0.9-2.1,2.1s0.9,2.1,2.1,2.1c1.2,0,2.1-0.9,2.1-2.1S153.9,106.6,152.7,106.6z"></path>	<path class="st0" d="M203.5,105.8l-9.9-15.3l9.1-14.8l-18.8,0l-8.5-11.5c-1.6-2.2-2.7-4.8-3-7.5l-2.2-17.3   c-1.1-8.4-7.7-15.1-16-16.3l-17.2-2.5c-2.7-0.4-5.3-1.5-7.4-3.2L115.7,6.9C109,1.7,99.6,1.6,92.8,6.7l-14,10.4   c-2.2,1.6-4.8,2.7-7.5,3L54,22.3c-8.4,1.1-15.1,7.7-16.3,16l-2.5,17.2c-0.4,2.7-1.5,5.3-3.2,7.4l-9.9,12.8l-18.3,0l9.1,14.8   l-9.9,15.3l22.7,0l5.8,7.8c1.6,2.2,2.7,4.8,3,7.5l2.2,17.3c1.1,8.4,7.7,15.1,16,16.3l17.2,2.5c2.7,0.4,5.3,1.5,7.4,3.2l13.8,10.6   c3.4,2.6,7.5,3.9,11.6,3.9c4,0,8-1.2,11.3-3.7l14-10.4c2.2-1.6,4.8-2.7,7.5-3l17.3-2.2c8.4-1.1,15.1-7.7,16.3-16l2.5-17.2   c0.4-2.7,1.5-5.3,3.2-7.4l7-9.1L203.5,105.8z M197.3,78.8l-7.3,11.8l7.9,12.3l-13.7,0l0,0l-14.5,0c0.9-4.5,1.4-9.1,1.4-13.9   c0-1,0-2-0.1-3c0-0.4,0-0.9-0.1-1.3c0-0.5-0.1-1-0.1-1.5c-0.1-0.6-0.1-1.2-0.2-1.8c0,0,0-0.1,0-0.1c-0.1-0.8-0.2-1.6-0.3-2.4   l15.7,0l0,0L197.3,78.8z M38.7,89c0-35.7,29.1-64.8,64.8-64.8c31.9,0,58.4,23.2,63.8,53.5c0.1,0.8,0.3,1.7,0.4,2.5   c0,0.1,0,0.3,0.1,0.4c0.1,0.8,0.2,1.6,0.3,2.4c0,0.3,0.1,0.7,0.1,1c0,0.6,0.1,1.2,0.1,1.9c0,1,0.1,2,0.1,3c0,1.2,0,2.4-0.1,3.6   c0,0.2,0,0.5-0.1,0.7c-0.1,1-0.2,2-0.3,3c0,0.2-0.1,0.4-0.1,0.7c-0.1,1-0.3,2-0.5,3.1c0,0.2-0.1,0.4-0.1,0.6   c-0.2,1-0.4,2.1-0.6,3.1c-6.7,28.6-32.4,50.1-63.1,50.1C67.8,153.8,38.7,124.7,38.7,89z M34.4,64.9c2-2.6,3.3-5.6,3.8-8.8l2.5-17.2   c1-7,6.7-12.6,13.8-13.5l17.3-2.2c3.2-0.4,6.3-1.7,8.9-3.6l14-10.4c5.7-4.3,13.6-4.2,19.3,0.2l13.8,10.6c2.6,2,5.6,3.3,8.8,3.8   l17.2,2.5c7,1,12.6,6.7,13.5,13.8l2.2,17.3c0.4,3.2,1.7,6.3,3.6,8.9l7.2,9.7l-10.2,0c-6.1-31.1-33.6-54.6-66.5-54.6   c-32.9,0-60.3,23.5-66.5,54.6l-11.1,0L34.4,64.9z M8.6,102.8l7.9-12.3L9.2,78.8l10.6,0l0,0l16.3,0c-0.5,3.4-0.8,6.8-0.8,10.2   c0,4.6,0.5,9.3,1.4,13.9l-13.2,0l0,0L8.6,102.8z M172.5,113.1c-2,2.6-3.3,5.6-3.8,8.8l-2.5,17.2c-1,7-6.7,12.6-13.8,13.5l-17.3,2.2   c-3.2,0.4-6.3,1.7-8.9,3.6l-14,10.4c-5.7,4.3-13.6,4.2-19.3-0.2l-13.8-10.6c-2.6-2-5.6-3.3-8.8-3.8l-17.2-2.5   c-7-1-12.6-6.7-13.5-13.8l-2.2-17.3c-0.4-3.2-1.7-6.3-3.6-8.9l-4.5-6l8.3,0c7.5,29.2,34.1,50.9,65.6,50.9   c31.5,0,58.1-21.7,65.6-50.9l9.1,0L172.5,113.1z"></path></g></svg>