<svg xmlns="http://www.w3.org/2000/svg" width="89" height="32" viewBox="0 0 89 32" fill="none"><path d="M26.6294 5.36801C26.6016 5.14608 26.518 4.96576 26.3788 4.82705C26.2674 4.6606 26.1003 4.5635 25.8775 4.53576C24.8749 4.39705 23.8862 4.21673 22.9114 3.9948C21.9367 3.74512 20.9759 3.43997 20.0289 3.07932C19.082 2.74642 18.0794 2.3303 17.0211 1.83095C15.9628 1.3316 14.8627 0.762896 13.7209 0.124837C13.5816 0.0416125 13.4424 0 13.3031 0C13.1639 0 13.0246 0.0416125 12.8854 0.124837C11.7435 0.762896 10.6434 1.3316 9.58512 1.83095C8.55466 2.3303 7.56597 2.74642 6.61907 3.07932C5.64431 3.43997 4.66955 3.74512 3.6948 3.9948C2.72004 4.21673 1.74528 4.39705 0.770523 4.53576C0.547721 4.5635 0.366694 4.6606 0.227443 4.82705C0.0881923 4.96576 0.0185668 5.14608 0.0185668 5.36801C-0.0371336 7.39315 0.0324919 9.30733 0.227443 11.1105C0.422395 12.9415 0.742672 14.6892 1.18828 16.3537C1.63388 17.9905 2.19088 19.544 2.85929 21.0143C3.55554 22.4569 4.3632 23.8162 5.28226 25.0923C6.28486 26.5072 7.4128 27.7833 8.66606 28.9207C9.94717 30.0303 11.3536 31.0152 12.8854 31.8752C12.9968 31.9584 13.136 32 13.3031 32C13.4702 32 13.6234 31.9584 13.7626 31.8752C15.2666 30.9874 16.6451 29.9887 17.8984 28.8791C19.1795 27.7417 20.3214 26.4794 21.324 25.0923C22.243 23.8162 23.0507 22.4569 23.747 21.0143C24.4432 19.544 25.0002 17.9905 25.418 16.3537C25.8636 14.6892 26.1838 12.9415 26.3788 11.1105C26.5737 9.30733 26.6573 7.39315 26.6294 5.36801ZM19.9036 24.1352C19.0403 25.3281 18.0516 26.4239 16.9376 27.4226C15.8514 28.4213 14.6399 29.3368 13.3031 30.1691C11.9663 29.3368 10.7409 28.4213 9.62689 27.4226C8.54073 26.4239 7.56597 25.3281 6.70262 24.1352C5.86711 22.9424 5.12908 21.6801 4.48853 20.3485C3.87582 19.0169 3.36059 17.6021 2.94284 16.104C2.52509 14.606 2.21873 13.0247 2.02378 11.3602C1.82883 9.69571 1.73135 7.96186 1.73135 6.15865C2.67826 5.9922 3.61124 5.78414 4.5303 5.53446C5.44936 5.28479 6.36842 4.9935 7.28747 4.6606C8.20653 4.3277 9.16736 3.93932 10.17 3.49545C11.1726 3.02384 12.217 2.49675 13.3031 1.91417C14.3893 2.49675 15.4337 3.02384 16.4363 3.49545C17.4389 3.93932 18.3997 4.3277 19.3188 4.6606C20.2378 4.9935 21.1569 5.28479 22.0759 5.53446C23.0228 5.78414 23.9558 5.9922 24.8749 6.15865C24.8749 7.9896 24.7774 9.73732 24.5825 11.4018C24.3875 13.0663 24.0812 14.6476 23.6634 16.1456C23.2456 17.6437 22.7304 19.0585 22.1177 20.3901C21.4772 21.7217 20.7391 22.9701 19.9036 24.1352ZM31.9349 5.53446C31.9071 5.58994 31.8792 5.64543 31.8514 5.70091C31.8235 5.72865 31.8096 5.78414 31.8096 5.86736C31.8096 5.92284 31.8235 5.97833 31.8514 6.03381C31.8792 6.08929 31.921 6.14478 31.9767 6.20026C32.0324 6.228 32.1299 6.26961 32.2691 6.3251C32.4084 6.35284 32.5894 6.39445 32.8122 6.44993C33.035 6.50542 33.2299 6.57477 33.397 6.658C33.5642 6.74122 33.7173 6.83832 33.8566 6.94929C33.968 7.06025 34.0515 7.19896 34.1072 7.36541C34.1629 7.50412 34.1908 7.68444 34.1908 7.90637C34.1908 8.10056 34.149 8.28088 34.0655 8.44733C34.0098 8.61378 33.8984 8.76636 33.7313 8.90507C33.592 9.01604 33.411 9.11313 33.1882 9.19636C32.9932 9.25184 32.7704 9.27958 32.5198 9.27958C32.1577 9.27958 31.8096 9.21023 31.4754 9.07152C31.1412 8.93281 30.8348 8.72475 30.5563 8.44733L31.1412 7.69831C31.3918 7.92024 31.6286 8.08669 31.8514 8.19766C32.102 8.30863 32.3248 8.36411 32.5198 8.36411C32.6312 8.36411 32.7147 8.36411 32.7704 8.36411C32.854 8.33637 32.9236 8.29475 32.9793 8.23927C33.035 8.21153 33.0768 8.16992 33.1046 8.11443C33.1325 8.05895 33.1464 7.9896 33.1464 7.90637C33.1464 7.85089 33.1325 7.79541 33.1046 7.73992C33.0768 7.68444 33.035 7.62896 32.9793 7.57347C32.9236 7.54573 32.84 7.51799 32.7286 7.49025C32.6172 7.43476 32.478 7.37928 32.3109 7.3238C32.0324 7.26831 31.7957 7.19896 31.6007 7.11574C31.4058 7.03251 31.2387 6.93541 31.0994 6.82445C30.988 6.74122 30.8905 6.61638 30.807 6.44993C30.7513 6.28349 30.7234 6.08929 30.7234 5.86736C30.7234 5.64543 30.7652 5.45124 30.8488 5.28479C30.9323 5.11834 31.0576 4.97963 31.2247 4.86866C31.364 4.75769 31.5311 4.67447 31.726 4.61899C31.921 4.5635 32.1438 4.53576 32.3944 4.53576C32.5337 4.53576 32.6869 4.54963 32.854 4.57737C33.0211 4.57737 33.1742 4.60511 33.3135 4.6606C33.4806 4.71608 33.6199 4.78544 33.7313 4.86866C33.8705 4.95189 33.9958 5.03511 34.1072 5.11834L33.6059 5.86736C33.411 5.72865 33.2021 5.61769 32.9793 5.53446C32.7843 5.45124 32.5755 5.40962 32.3527 5.40962C32.2691 5.40962 32.1856 5.42349 32.102 5.45124C32.0463 5.47898 31.9906 5.50672 31.9349 5.53446ZM37.6999 9.23797H36.7391V8.78023C36.6277 8.94668 36.4884 9.07152 36.3213 9.15475C36.1542 9.23797 35.9732 9.27958 35.7782 9.27958C35.6111 9.27958 35.444 9.25184 35.2769 9.19636C35.1098 9.14088 34.9706 9.05765 34.8592 8.94668C34.7199 8.83572 34.6225 8.71088 34.5668 8.57217C34.5111 8.43346 34.4832 8.26701 34.4832 8.07282C34.4832 7.90637 34.5111 7.75379 34.5668 7.61508C34.6225 7.47638 34.7199 7.36541 34.8592 7.28219C34.9984 7.17122 35.1516 7.10186 35.3187 7.07412C35.5137 7.01864 35.7225 6.9909 35.9453 6.9909H36.6973C36.6973 6.79671 36.6416 6.658 36.5302 6.57477C36.4466 6.46381 36.2935 6.40832 36.0707 6.40832C35.9871 6.40832 35.9036 6.42219 35.82 6.44993C35.7365 6.44993 35.639 6.47768 35.5276 6.53316C35.444 6.5609 35.3605 6.60251 35.2769 6.658C35.1934 6.68574 35.1238 6.72735 35.0681 6.78284L34.6085 6.11704C34.8313 5.95059 35.082 5.82575 35.3605 5.74252C35.639 5.6593 35.9175 5.61769 36.196 5.61769C36.4188 5.61769 36.6137 5.64543 36.7808 5.70091C36.9758 5.75639 37.1429 5.83962 37.2822 5.95059C37.4214 6.06155 37.5189 6.20026 37.5746 6.36671C37.6581 6.53316 37.6999 6.72735 37.6999 6.94929V9.23797ZM36.6973 7.86476V7.69831H36.0707C35.8757 7.69831 35.7225 7.73992 35.6111 7.82315C35.4997 7.87863 35.444 7.96186 35.444 8.07282C35.444 8.12831 35.458 8.18379 35.4858 8.23927C35.5137 8.29475 35.5554 8.33637 35.6111 8.36411C35.6668 8.39185 35.7225 8.41959 35.7782 8.44733C35.8339 8.44733 35.9175 8.44733 36.0289 8.44733C36.1124 8.44733 36.1821 8.44733 36.2378 8.44733C36.3213 8.41959 36.4049 8.37798 36.4884 8.3225C36.5441 8.26701 36.5859 8.19766 36.6137 8.11443C36.6694 8.03121 36.6973 7.94798 36.6973 7.86476ZM39.4127 5.49285V5.70091H40.29V6.40832H39.4127V9.23797H38.4101V6.40832H37.9923V5.70091H38.4101V5.49285C38.4101 5.29866 38.4379 5.13221 38.4936 4.9935C38.5493 4.82705 38.6468 4.68834 38.7861 4.57737C38.8975 4.46641 39.0228 4.38318 39.162 4.3277C39.3013 4.27222 39.4684 4.24447 39.6633 4.24447C39.8304 4.24447 39.9836 4.28609 40.1229 4.36931C40.29 4.42479 40.4432 4.50802 40.5824 4.61899L40.2482 5.28479C40.1646 5.20156 40.0811 5.14608 39.9976 5.11834C39.9418 5.06285 39.8583 5.03511 39.7469 5.03511C39.719 5.03511 39.6773 5.04898 39.6216 5.07672C39.5937 5.10447 39.5519 5.13221 39.4962 5.15995C39.4684 5.18769 39.4405 5.2293 39.4127 5.28479C39.4127 5.34027 39.4127 5.40962 39.4127 5.49285ZM43.632 8.69701C43.437 8.8912 43.2142 9.04378 42.9636 9.15475C42.7408 9.23797 42.4901 9.27958 42.2116 9.27958C41.961 9.27958 41.7243 9.23797 41.5015 9.15475C41.2787 9.07152 41.0698 8.94668 40.8748 8.78023C40.7077 8.61378 40.5824 8.41959 40.4989 8.19766C40.4153 7.97573 40.3735 7.72605 40.3735 7.44863C40.3735 7.17122 40.4153 6.92154 40.4989 6.69961C40.5824 6.47768 40.7217 6.28349 40.9166 6.11704C41.0837 5.95059 41.2647 5.82575 41.4597 5.74252C41.6825 5.6593 41.9192 5.61769 42.1699 5.61769C42.4205 5.61769 42.6433 5.6593 42.8383 5.74252C43.0611 5.79801 43.256 5.90897 43.4231 6.07542C43.5902 6.21413 43.7156 6.39445 43.7991 6.61638C43.8827 6.81058 43.9244 7.03251 43.9244 7.28219V7.78153H41.3344C41.3622 7.8925 41.3901 7.9896 41.4179 8.07282C41.4736 8.15605 41.5432 8.2254 41.6268 8.28088C41.7103 8.33637 41.7939 8.37798 41.8774 8.40572C41.9888 8.43346 42.1002 8.44733 42.2116 8.44733C42.4066 8.44733 42.5737 8.41959 42.7129 8.36411C42.8522 8.30863 42.9775 8.2254 43.0889 8.11443L43.632 8.69701ZM42.6712 6.61638C42.6155 6.5609 42.5458 6.51929 42.4623 6.49155C42.3787 6.46381 42.2813 6.44993 42.1699 6.44993C42.0863 6.44993 41.9888 6.46381 41.8774 6.49155C41.7939 6.51929 41.7103 6.5609 41.6268 6.61638C41.5711 6.67187 41.5154 6.74122 41.4597 6.82445C41.404 6.90767 41.3761 7.00477 41.3761 7.11574H42.9218C42.9218 7.00477 42.894 6.90767 42.8383 6.82445C42.8104 6.74122 42.7547 6.67187 42.6712 6.61638ZM47.8513 9.23797H45.8043V4.61899H47.6424C47.7817 4.61899 47.9209 4.63286 48.0602 4.6606C48.1994 4.6606 48.3248 4.68834 48.4362 4.74382C48.5476 4.77156 48.645 4.81318 48.7286 4.86866C48.8121 4.92414 48.8818 4.97963 48.9375 5.03511C49.0489 5.14608 49.1324 5.27091 49.1881 5.40962C49.2438 5.54833 49.2717 5.68704 49.2717 5.82575C49.2717 6.01994 49.2299 6.18639 49.1463 6.3251C49.0906 6.43606 49.0071 6.54703 48.8957 6.658C48.8678 6.68574 48.84 6.71348 48.8121 6.74122C48.7843 6.74122 48.7564 6.74122 48.7286 6.74122C48.7286 6.76896 48.7147 6.79671 48.6868 6.82445C48.659 6.82445 48.6172 6.82445 48.5615 6.82445C48.7007 6.85219 48.8261 6.90767 48.9375 6.9909C49.0767 7.04638 49.1881 7.12961 49.2717 7.24057C49.3552 7.3238 49.4109 7.43476 49.4388 7.57347C49.4945 7.68444 49.5223 7.80928 49.5223 7.94798C49.5223 8.11443 49.4945 8.26701 49.4388 8.40572C49.3831 8.54443 49.2995 8.66927 49.1881 8.78023C49.0489 8.94668 48.8678 9.07152 48.645 9.15475C48.4222 9.21023 48.1577 9.23797 47.8513 9.23797ZM46.8487 6.49155H47.35C47.4893 6.49155 47.6146 6.49155 47.726 6.49155C47.8374 6.46381 47.9209 6.43606 47.9766 6.40832C48.0602 6.38058 48.1159 6.33897 48.1437 6.28349C48.1716 6.20026 48.1855 6.10316 48.1855 5.9922C48.1855 5.88123 48.1716 5.79801 48.1437 5.74252C48.1159 5.6593 48.0741 5.60381 48.0184 5.57607C47.9349 5.54833 47.8374 5.53446 47.726 5.53446C47.6424 5.50672 47.5171 5.49285 47.35 5.49285H46.8487V6.49155ZM46.8487 8.36411H47.5589C47.6981 8.36411 47.8235 8.35024 47.9349 8.3225C48.0463 8.29475 48.1437 8.26701 48.2273 8.23927C48.3108 8.21153 48.3665 8.16992 48.3944 8.11443C48.4222 8.03121 48.4362 7.93411 48.4362 7.82315C48.4362 7.71218 48.4222 7.62896 48.3944 7.57347C48.3665 7.49025 48.3108 7.43476 48.2273 7.40702C48.1437 7.37928 48.0323 7.35154 47.8931 7.3238C47.7817 7.29606 47.6424 7.28219 47.4753 7.28219H46.8487V8.36411ZM51.82 6.53316C51.6807 6.53316 51.5554 6.5609 51.444 6.61638C51.3326 6.67187 51.2351 6.75509 51.1516 6.86606C51.0959 6.97703 51.0402 7.10186 50.9845 7.24057C50.9566 7.37928 50.9427 7.53186 50.9427 7.69831V9.23797H49.9401V5.70091H50.9427V6.15865C50.9984 6.07542 51.068 6.00607 51.1516 5.95059C51.2351 5.8951 51.3187 5.83962 51.4022 5.78414C51.5136 5.72865 51.6111 5.68704 51.6946 5.6593C51.806 5.63156 51.9035 5.61769 51.9871 5.61769L52.0288 6.53316H51.82ZM55.8304 7.44863C55.8304 7.69831 55.7886 7.93411 55.7051 8.15605C55.6215 8.37798 55.4823 8.57217 55.2873 8.73862C55.1202 8.93281 54.9253 9.07152 54.7025 9.15475C54.4797 9.23797 54.229 9.27958 53.9505 9.27958C53.6999 9.27958 53.4492 9.23797 53.1986 9.15475C52.9757 9.07152 52.7808 8.93281 52.6137 8.73862C52.4466 8.57217 52.3073 8.37798 52.1959 8.15605C52.1124 7.93411 52.0706 7.69831 52.0706 7.44863C52.0706 7.19896 52.1124 6.96316 52.1959 6.74122C52.3073 6.51929 52.4466 6.3251 52.6137 6.15865C52.7808 5.96446 52.9757 5.82575 53.1986 5.74252C53.4492 5.6593 53.6999 5.61769 53.9505 5.61769C54.229 5.61769 54.4797 5.6593 54.7025 5.74252C54.9253 5.82575 55.1202 5.96446 55.2873 6.15865C55.4823 6.3251 55.6215 6.51929 55.7051 6.74122C55.7886 6.96316 55.8304 7.19896 55.8304 7.44863ZM53.0732 7.44863C53.0732 7.58734 53.0872 7.72605 53.115 7.86476C53.1707 7.97573 53.2403 8.07282 53.3239 8.15605C53.4074 8.23927 53.5049 8.30863 53.6163 8.36411C53.7277 8.41959 53.8391 8.44733 53.9505 8.44733C54.0898 8.44733 54.2012 8.41959 54.2847 8.36411C54.3961 8.30863 54.4936 8.23927 54.5771 8.15605C54.6607 8.07282 54.7164 7.97573 54.7442 7.86476C54.7999 7.72605 54.8278 7.58734 54.8278 7.44863C54.8278 7.30993 54.7999 7.18509 54.7442 7.07412C54.7164 6.93541 54.6607 6.82445 54.5771 6.74122C54.4936 6.658 54.3961 6.58864 54.2847 6.53316C54.2012 6.47768 54.0898 6.44993 53.9505 6.44993C53.8391 6.44993 53.7277 6.47768 53.6163 6.53316C53.5049 6.58864 53.4074 6.658 53.3239 6.74122C53.2403 6.82445 53.1707 6.93541 53.115 7.07412C53.0872 7.18509 53.0732 7.30993 53.0732 7.44863ZM58.0445 9.23797H57.0001L55.7886 5.70091H56.833L57.5014 7.82315L58.2116 5.70091H59.1724L59.8826 7.82315L60.551 5.70091H61.5954L60.3839 9.23797H59.3395L58.6711 7.28219L58.0445 9.23797ZM64.4361 8.11443C64.4361 8.28088 64.3943 8.44733 64.3108 8.61378C64.2551 8.75249 64.1715 8.86346 64.0601 8.94668C63.9209 9.05765 63.7677 9.14088 63.6006 9.19636C63.4335 9.25184 63.2525 9.27958 63.0575 9.27958C62.9461 9.27958 62.8208 9.26571 62.6815 9.23797C62.5423 9.21023 62.3891 9.18249 62.222 9.15475C62.0828 9.09926 61.9435 9.04378 61.8043 8.9883C61.6929 8.90507 61.5815 8.80798 61.4701 8.69701L61.8878 8.11443C62.0828 8.25314 62.2777 8.36411 62.4727 8.44733C62.6676 8.50282 62.8765 8.53056 63.0993 8.53056C63.155 8.53056 63.2107 8.53056 63.2664 8.53056C63.3221 8.50282 63.3639 8.47508 63.3917 8.44733C63.4196 8.41959 63.4474 8.39185 63.4753 8.36411C63.5031 8.33637 63.5171 8.29475 63.5171 8.23927C63.5171 8.21153 63.5031 8.18379 63.4753 8.15605C63.4474 8.10056 63.4057 8.05895 63.3499 8.03121C63.2943 7.97573 63.2246 7.93411 63.1411 7.90637C63.0854 7.87863 63.0018 7.85089 62.8904 7.82315C62.8069 7.79541 62.7233 7.76766 62.6398 7.73992C62.5562 7.71218 62.4866 7.68444 62.4309 7.6567C62.403 7.62896 62.3473 7.60121 62.2638 7.57347C62.2081 7.54573 62.1524 7.51799 62.0967 7.49025C61.9574 7.40702 61.846 7.30993 61.7625 7.19896C61.7068 7.06025 61.6789 6.90767 61.6789 6.74122C61.6789 6.57477 61.7068 6.42219 61.7625 6.28349C61.846 6.14478 61.9574 6.03381 62.0967 5.95059C62.2359 5.83962 62.3891 5.75639 62.5562 5.70091C62.7233 5.64543 62.9043 5.61769 63.0993 5.61769C63.3221 5.61769 63.531 5.6593 63.7259 5.74252C63.9487 5.79801 64.1576 5.8951 64.3526 6.03381L64.0184 6.69961C63.8513 6.58864 63.6842 6.50542 63.5171 6.44993C63.3778 6.39445 63.2385 6.36671 63.0993 6.36671C62.9322 6.36671 62.8069 6.39445 62.7233 6.44993C62.6676 6.47768 62.6398 6.53316 62.6398 6.61638C62.6398 6.67187 62.6398 6.72735 62.6398 6.78284C62.6676 6.81058 62.7094 6.83832 62.7651 6.86606C62.8208 6.8938 62.8904 6.92154 62.974 6.94929C63.0575 6.97703 63.155 7.00477 63.2664 7.03251C63.3778 7.06025 63.4614 7.08799 63.5171 7.11574C63.6006 7.14348 63.6702 7.17122 63.7259 7.19896C63.7816 7.2267 63.8373 7.25444 63.893 7.28219C63.9487 7.30993 64.0044 7.33767 64.0601 7.36541C64.1994 7.44863 64.2969 7.5596 64.3526 7.69831C64.4083 7.80928 64.4361 7.94798 64.4361 8.11443ZM64.9374 5.24317C64.8817 5.18769 64.8399 5.13221 64.8121 5.07672C64.7842 4.9935 64.7703 4.91027 64.7703 4.82705C64.7703 4.74382 64.7842 4.67447 64.8121 4.61899C64.8399 4.53576 64.8817 4.46641 64.9374 4.41092C64.9931 4.35544 65.0488 4.31383 65.1045 4.28609C65.1881 4.25834 65.2716 4.24447 65.3552 4.24447C65.4387 4.24447 65.5083 4.25834 65.564 4.28609C65.6476 4.31383 65.7172 4.35544 65.7729 4.41092C65.8286 4.46641 65.8704 4.53576 65.8982 4.61899C65.9261 4.67447 65.94 4.74382 65.94 4.82705C65.94 4.91027 65.9261 4.9935 65.8982 5.07672C65.8704 5.13221 65.8286 5.18769 65.7729 5.24317C65.7172 5.29866 65.6476 5.34027 65.564 5.36801C65.5083 5.39575 65.4387 5.40962 65.3552 5.40962C65.2716 5.40962 65.1881 5.39575 65.1045 5.36801C65.0488 5.34027 64.9931 5.29866 64.9374 5.24317ZM65.8565 9.23797H64.8539V5.70091H65.8565V9.23797ZM67.4439 7.24057V9.23797H66.4831V5.70091H67.4439V6.07542C67.611 5.93671 67.7781 5.82575 67.9452 5.74252C68.1123 5.6593 68.2934 5.61769 68.4883 5.61769C68.6554 5.61769 68.8225 5.6593 68.9896 5.74252C69.1567 5.79801 69.296 5.8951 69.4074 6.03381C69.5466 6.14478 69.6441 6.29736 69.6998 6.49155C69.7555 6.658 69.7833 6.85219 69.7833 7.07412V9.23797H68.7807V7.24057C68.7807 6.96316 68.725 6.75509 68.6136 6.61638C68.5301 6.47768 68.3908 6.40832 68.1959 6.40832C68.0845 6.40832 67.987 6.43606 67.9035 6.49155C67.8199 6.51929 67.7503 6.5609 67.6946 6.61638C67.611 6.69961 67.5414 6.79671 67.4857 6.90767C67.4579 6.9909 67.4439 7.10186 67.4439 7.24057ZM73.0001 8.61378C72.8329 8.80798 72.6519 8.94668 72.457 9.02991C72.262 9.11313 72.0531 9.15475 71.8303 9.15475C71.6075 9.15475 71.3847 9.11313 71.1619 9.02991C70.967 8.94668 70.7999 8.82185 70.6606 8.6554C70.4935 8.51669 70.3682 8.35024 70.2847 8.15605C70.2011 7.93411 70.1593 7.68444 70.1593 7.40702C70.1593 7.15735 70.2011 6.92154 70.2847 6.69961C70.3682 6.47768 70.4935 6.28349 70.6606 6.11704C70.8277 5.95059 70.9948 5.82575 71.1619 5.74252C71.3569 5.6593 71.5658 5.61769 71.7886 5.61769C72.0114 5.61769 72.2063 5.6593 72.3734 5.74252C72.5405 5.82575 72.6937 5.96446 72.8329 6.15865V5.6593H73.8356V8.78023C73.8356 8.91894 73.8216 9.05765 73.7938 9.19636C73.7659 9.33507 73.7242 9.47378 73.6685 9.61248C73.6128 9.72345 73.5431 9.83442 73.4596 9.94538C73.4039 10.0286 73.3203 10.1118 73.2089 10.1951C73.0418 10.3338 72.8469 10.4447 72.6241 10.528C72.4013 10.5834 72.1645 10.6112 71.9139 10.6112C71.8025 10.6112 71.6772 10.6112 71.5379 10.6112C71.3987 10.5834 71.2594 10.5418 71.1202 10.4863C70.9809 10.4586 70.8417 10.417 70.7024 10.3615C70.591 10.2783 70.4935 10.1951 70.41 10.1118L70.786 9.36281C70.9531 9.50152 71.1202 9.59861 71.2873 9.6541C71.4544 9.70958 71.6354 9.73732 71.8303 9.73732C71.9974 9.73732 72.1506 9.72345 72.2899 9.69571C72.4291 9.64023 72.5544 9.57087 72.6658 9.48765C72.7772 9.40442 72.8608 9.29346 72.9165 9.15475C72.9722 8.9883 73.0001 8.80798 73.0001 8.61378ZM72.8329 7.36541C72.8329 7.2267 72.819 7.10186 72.7912 6.9909C72.7633 6.87993 72.7076 6.78284 72.6241 6.69961C72.5405 6.61638 72.443 6.5609 72.3316 6.53316C72.2481 6.47768 72.1506 6.44993 72.0392 6.44993C71.9278 6.44993 71.8164 6.47768 71.705 6.53316C71.5936 6.5609 71.4961 6.61638 71.4126 6.69961C71.329 6.78284 71.2594 6.87993 71.2037 6.9909C71.1759 7.10186 71.1619 7.2267 71.1619 7.36541C71.1619 7.50412 71.1759 7.62896 71.2037 7.73992C71.2594 7.85089 71.329 7.96186 71.4126 8.07282C71.4961 8.15605 71.5797 8.2254 71.6632 8.28088C71.7746 8.30863 71.9 8.3225 72.0392 8.3225C72.1506 8.3225 72.2481 8.30863 72.3316 8.28088C72.443 8.2254 72.5405 8.15605 72.6241 8.07282C72.7076 7.9896 72.7633 7.8925 72.7912 7.78153C72.819 7.64283 72.8329 7.50412 72.8329 7.36541ZM20.9062 10.8609C20.9062 10.9996 20.8784 11.1244 20.8227 11.2354C20.767 11.3186 20.6974 11.4157 20.6138 11.5267L12.3841 19.7243C12.2727 19.8075 12.1613 19.8769 12.0499 19.9324C11.9663 19.9879 11.8549 20.0156 11.7157 20.0156C11.5764 20.0156 11.4511 19.9879 11.3397 19.9324C11.2561 19.8769 11.1587 19.8075 11.0473 19.7243L6.28486 14.9805C6.20131 14.8973 6.13169 14.8002 6.07599 14.6892C6.04814 14.5782 6.03421 14.4534 6.03421 14.3147C6.03421 14.2037 6.04814 14.0928 6.07599 13.9818C6.13169 13.8708 6.20131 13.7737 6.28486 13.6905L7.5799 12.3589C7.66345 12.2757 7.76093 12.2202 7.87233 12.1925C7.98373 12.137 8.10905 12.1092 8.24831 12.1092C8.35971 12.1092 8.47111 12.137 8.58251 12.1925C8.69391 12.2202 8.79138 12.2757 8.87494 12.3589L11.7157 15.1886L18.0237 8.90507C18.1073 8.82185 18.2048 8.76636 18.3162 8.73862C18.4276 8.68314 18.539 8.6554 18.6504 8.6554C18.7896 8.6554 18.9149 8.68314 19.0263 8.73862C19.1377 8.76636 19.2352 8.82185 19.3188 8.90507L20.6138 10.1951C20.6974 10.306 20.767 10.417 20.8227 10.528C20.8784 10.6112 20.9062 10.7221 20.9062 10.8609ZM43.9662 18.5176H36.9897V20.5566H41.9192C41.8078 21.9991 41.2369 23.0533 40.2064 23.7191C39.2038 24.3572 38.1316 24.6762 36.9897 24.6762C35.5415 24.6762 34.2604 24.163 33.1464 23.1365C32.0602 22.1101 31.5172 20.8062 31.5172 19.225C31.5172 17.6437 32.0463 16.326 33.1046 15.2718C34.1908 14.2176 35.4858 13.6905 36.9897 13.6905C38.1594 13.6905 39.0646 13.9402 39.7051 14.4395C40.3735 14.9389 40.7077 15.1886 40.7077 15.1886L42.1699 13.6905C42.1699 13.6905 41.7103 13.3437 40.7913 12.6502C39.9001 11.9567 38.605 11.6099 36.9062 11.6099C34.7617 11.6099 32.9514 12.3867 31.4754 13.9402C29.9993 15.466 29.2613 17.2137 29.2613 19.1834C29.2613 21.0975 29.9715 22.8453 31.3918 24.4265C32.84 25.9801 34.7199 26.7568 37.0315 26.7568C39.0646 26.7568 40.7495 26.1326 42.0863 24.8843C43.4231 23.6082 44.0915 21.9437 44.0915 19.8908C44.0915 19.4469 44.0637 19.114 44.008 18.8921C43.9801 18.6424 43.9662 18.5176 43.9662 18.5176ZM49.6476 17.0195C48.2273 17.0195 47.0576 17.505 46.1385 18.4759C45.2195 19.4192 44.7599 20.5427 44.7599 21.8466C44.7599 23.1504 45.2055 24.3017 46.0967 25.3004C47.0158 26.2713 48.2134 26.7568 49.6894 26.7568C51.0262 26.7568 52.1681 26.2991 53.115 25.3836C54.0898 24.4681 54.5771 23.303 54.5771 21.8882C54.5771 20.2792 54.048 19.0724 52.9897 18.2679C51.9314 17.4356 50.8174 17.0195 49.6476 17.0195ZM49.6894 24.8427C48.9096 24.8427 48.2412 24.5652 47.6842 24.0104C47.1551 23.4556 46.8905 22.7482 46.8905 21.8882C46.8905 21.0282 47.1551 20.3208 47.6842 19.7659C48.2412 19.2111 48.9096 18.9337 49.6894 18.9337C50.3857 18.9337 51.0123 19.1972 51.5693 19.7243C52.1263 20.2514 52.4048 20.9727 52.4048 21.8882C52.4327 22.7759 52.1542 23.4972 51.5693 24.052C51.0123 24.5791 50.3857 24.8427 49.6894 24.8427ZM60.3421 17.0195C58.8939 17.0195 57.7103 17.505 56.7912 18.4759C55.8722 19.4192 55.4126 20.5427 55.4126 21.8466C55.4126 23.1504 55.8722 24.3017 56.7912 25.3004C57.7103 26.2713 58.9078 26.7568 60.3839 26.7568C61.7207 26.7568 62.8626 26.2991 63.8095 25.3836C64.7564 24.4681 65.2298 23.303 65.2298 21.8882C65.2298 20.2792 64.7007 19.0724 63.6424 18.2679C62.6119 17.4356 61.5118 17.0195 60.3421 17.0195ZM60.3421 24.8427C59.5623 24.8427 58.9078 24.5652 58.3787 24.0104C57.8495 23.4556 57.585 22.7482 57.585 21.8882C57.585 21.0282 57.8495 20.3208 58.3787 19.7659C58.9078 19.2111 59.5623 18.9337 60.3421 18.9337C61.0662 18.9337 61.7068 19.1972 62.2638 19.7243C62.8208 20.2514 63.0993 20.9727 63.0993 21.8882C63.0993 22.7759 62.8208 23.4972 62.2638 24.052C61.7068 24.5791 61.0662 24.8427 60.3421 24.8427ZM73.4178 18.143C73.1115 17.8101 72.7355 17.5466 72.2899 17.3524C71.8721 17.1305 71.3708 17.0195 70.786 17.0195C69.477 17.0195 68.363 17.5189 67.4439 18.5176C66.5527 19.4885 66.1071 20.6121 66.1071 21.8882C66.1071 23.3585 66.5945 24.5375 67.5693 25.4252C68.5719 26.313 69.6302 26.7568 70.7442 26.7568C71.4404 26.7568 71.9974 26.6459 72.4152 26.4239C72.8329 26.1743 73.1672 25.883 73.4178 25.5501V26.5488C73.4178 27.381 73.1811 28.0329 72.7076 28.5046C72.262 28.9762 71.6493 29.212 70.8695 29.212C70.1176 29.212 69.5466 29.0039 69.1567 28.5878C68.7668 28.1717 68.5022 27.7971 68.363 27.4642L66.4831 28.2549C66.8173 28.9484 67.3325 29.6003 68.0288 30.2107C68.7529 30.821 69.6998 31.1261 70.8695 31.1261C72.1785 31.1261 73.2646 30.71 74.128 29.8778C75.0192 29.0455 75.4648 27.7694 75.4648 26.0494V17.3108H73.4178V18.143ZM70.9531 24.8427C70.2568 24.8427 69.6302 24.5791 69.0732 24.052C68.544 23.5249 68.2794 22.8175 68.2794 21.9298C68.2794 20.9866 68.5579 20.2514 69.1149 19.7243C69.672 19.1972 70.2986 18.9337 70.9948 18.9337C71.6354 18.9337 72.2202 19.1972 72.7494 19.7243C73.3064 20.2237 73.5849 20.945 73.5849 21.8882C73.5849 22.8314 73.3064 23.5665 72.7494 24.0936C72.2202 24.593 71.6215 24.8427 70.9531 24.8427ZM84.8225 24.8427C84.1541 24.8427 83.6388 24.6901 83.2768 24.3849C82.9147 24.052 82.6362 23.7052 82.4413 23.3446L89 20.6398L88.624 19.8492C88.3177 19.0724 87.8024 18.4066 87.0783 17.8518C86.3821 17.2969 85.5466 17.0195 84.5718 17.0195C83.3464 17.0195 82.2742 17.4634 81.3551 18.3511C80.4639 19.2388 80.0183 20.4179 80.0183 21.8882C80.0183 23.414 80.5057 24.6068 81.4804 25.4668C82.483 26.3268 83.5971 26.7568 84.8225 26.7568C85.8529 26.7568 86.6884 26.5349 87.329 26.091C87.9974 25.6194 88.5265 25.1339 88.9165 24.6346L87.2037 23.5111C87.0087 23.844 86.7163 24.1491 86.3264 24.4265C85.9365 24.7039 85.4352 24.8427 84.8225 24.8427ZM84.6554 18.8921C85.101 18.8921 85.4769 18.9892 85.7833 19.1834C86.1175 19.3775 86.3542 19.6272 86.4935 19.9324L82.1071 21.7217C82.0235 21.0282 82.2463 20.3901 82.7755 19.8075C83.3325 19.1972 83.9591 18.8921 84.6554 18.8921ZM76.9269 12.1092H79.0575V26.4655H76.9269V12.1092Z" fill="white"></path></svg>